<?xml version="1.0" encoding="UTF-8"?>
<svg version="1.1" xmlns="http://www.w3.org/2000/svg" width="1121" height="482">
<path d="M0 0 C10.7112767 2.74741222 18.33136685 7.5052733 24.3125 16.8125 C30.86668099 28.49604003 32.61063532 40.88155332 29.0625 53.75 C28.70285156 55.00296875 28.34320313 56.2559375 27.97265625 57.546875 C27.17974639 60.36186423 26.52119114 63.12521938 26 66 C30.92341647 70.58772898 36.02735313 73.89772593 41.87890625 77.20703125 C44.87775925 78.92977659 47.7836393 80.74746875 50.6875 82.625 C54.55571227 85.11210092 58.46552815 87.40866836 62.5078125 89.59765625 C64.29786226 90.60490995 66.06100766 91.66054376 67.8046875 92.74609375 C76.72813969 98.29963047 85.96196186 103.15282375 95.3125 107.9375 C163.38126896 142.79394677 163.38126896 142.79394677 171 164 C171.5625 167.3125 171.5625 167.3125 171 171 C170.87367188 171.84046875 170.74734375 172.6809375 170.6171875 173.546875 C166.790801 190.52371624 152.71225091 205.67906623 142 219 C141.24332031 219.94875 140.48664063 220.8975 139.70703125 221.875 C135.33489816 227.29313395 130.8003449 232.52798387 126.109375 237.671875 C124.24324433 239.73153033 122.42930212 241.82388895 120.625 243.9375 C119.42422748 245.29837552 118.21505231 246.6518588 117 248 C116.18917969 248.90105469 115.37835938 249.80210937 114.54296875 250.73046875 C107.29710622 258.411705 99.6418099 264.25861292 89 266 C89.99580078 267.16015625 89.99580078 267.16015625 91.01171875 268.34375 C104 283.61050478 104 283.61050478 104 288 C104.66 288 105.32 288 106 288 C106.2475 287.2575 106.495 286.515 106.75 285.75 C110.34359049 277.84410093 119.23879264 273.08321936 127 270 C151.67868012 261.16047276 174.30739639 263.9449704 199 271 C199 259.12 199 247.24 199 235 C244.87 235 290.74 235 338 235 C338 255.13 338 275.26 338 296 C325.46 296 312.92 296 300 296 C300 332.3 300 368.6 300 406 C279.21 406 258.42 406 237 406 C237 369.7 237 333.4 237 296 C232.71 296 228.42 296 224 296 C224.40992188 297.05058594 224.81984375 298.10117187 225.2421875 299.18359375 C235.34818986 325.38052479 234.09249753 352.62943779 234.125 380.375 C234.1275882 381.41288666 234.13017639 382.45077332 234.13284302 383.52011108 C234.13870415 386.50042147 234.13711181 389.48062625 234.1328125 392.4609375 C234.13479141 393.36406174 234.13677032 394.26718597 234.1388092 395.19767761 C234.13570236 396.03527115 234.13259552 396.87286469 234.12939453 397.73583984 C234.12820114 398.83066177 234.12820114 398.83066177 234.12698364 399.94760132 C234 402 234 402 233 406 C213.2 406 193.4 406 173 406 C172.96261719 401.31425781 172.92523437 396.62851562 172.88671875 391.80078125 C172.85639122 388.80660603 172.82521236 385.81248684 172.79101562 382.81835938 C172.73698857 378.08100452 172.68586992 373.34376047 172.65356445 368.60620117 C172.6272775 364.78046146 172.58670316 360.9551007 172.53681374 357.12959862 C172.52031452 355.68065343 172.50869604 354.23164296 172.50238609 352.78261757 C172.45798326 343.51071597 171.50475534 334.9626636 169 326 C167.4375 325.95833333 165.875 325.91666667 164.3125 325.875 C163.00732422 325.84019531 163.00732422 325.84019531 161.67578125 325.8046875 C158.7581457 326.0176536 156.67711128 326.86639537 154 328 C153.00239659 336.90438208 152.78920115 345.78082852 152.68359375 354.73046875 C152.6629708 356.21690884 152.64197315 357.70334377 152.62062073 359.18977356 C152.56595057 363.06446096 152.5163033 366.93919632 152.46777344 370.81396484 C152.41715109 374.78291999 152.3616797 378.75180721 152.30664062 382.72070312 C152.19973463 390.4804109 152.09814551 398.24017594 152 406 C144.19424805 406.02312792 136.38850405 406.04091738 128.58272648 406.05181217 C124.9585404 406.05704002 121.3343777 406.06413587 117.71020508 406.07543945 C114.21540025 406.08627184 110.72061796 406.09227758 107.22579765 406.09487724 C105.23760611 406.09763551 103.24942369 406.10544688 101.26124573 406.11329651 C100.06007614 406.11337204 98.85890656 406.11344757 97.62133789 406.11352539 C96.55766495 406.115746 95.493992 406.11796661 94.39808655 406.12025452 C92 406 92 406 91 405 C90.84259395 403.29436222 90.74906608 401.58272756 90.68359375 399.87109375 C90.64169922 398.83662109 90.59980469 397.80214844 90.55664062 396.73632812 C90.51732422 395.64771484 90.47800781 394.55910156 90.4375 393.4375 C90.39431641 392.34501953 90.35113281 391.25253906 90.30664062 390.12695312 C90.20017932 387.41810436 90.09816484 384.70916008 90 382 C89.14341797 382.8353125 89.14341797 382.8353125 88.26953125 383.6875 C70.53882137 400.37522695 50.72247831 406.61491103 26.75390625 406.26953125 C8.90210388 405.67103152 -7.55541816 398.70072394 -21 387 C-21.57492187 386.566875 -22.14984375 386.13375 -22.7421875 385.6875 C-34.15055286 376.85521714 -43.82733771 361.64960698 -46.71484375 347.49609375 C-46.85599609 346.26052734 -46.85599609 346.26052734 -47 345 C-48.7634375 345.680625 -48.7634375 345.680625 -50.5625 346.375 C-56 348 -56 348 -71 350 C-71 366.17 -71 382.34 -71 399 C-91.42429702 399.04010881 -91.42429702 399.04010881 -100.09960938 399.04882812 C-106.02987558 399.0548166 -111.96012642 399.06191703 -117.89038086 399.07543945 C-122.66898836 399.08626822 -127.44757938 399.09227681 -132.2261982 399.09487724 C-134.05353619 399.09673151 -135.88087324 399.10035216 -137.70820427 399.10573006 C-140.25853329 399.11294036 -142.80879337 399.11399095 -145.35913086 399.11352539 C-146.12229614 399.11712067 -146.88546143 399.12071594 -147.67175293 399.12442017 C-152.88594784 399.11405216 -152.88594784 399.11405216 -154 398 C-154.09878731 394.86053821 -154.13297311 391.74242654 -154.12597656 388.60253906 C-154.12877876 387.12207092 -154.12877876 387.12207092 -154.13163757 385.61169434 C-154.13565231 383.4601696 -154.13771739 381.30864057 -154.13809967 379.15711212 C-154.14150175 374.58816549 -154.16284838 370.0193629 -154.18333054 365.45046616 C-154.2214243 356.93408118 -154.25261457 348.41784695 -154.25048828 339.90136719 C-154.24970216 333.98669607 -154.27302604 328.07254722 -154.3123703 322.15801239 C-154.32285036 319.90138851 -154.32433967 317.6447045 -154.31671906 315.38806915 C-154.3071195 312.22981613 -154.3282399 309.07314882 -154.35644531 305.91503906 C-154.34624863 304.98081116 -154.33605194 304.04658325 -154.32554626 303.08404541 C-154.39843201 298.53644171 -154.52477537 296.61197871 -157.39544678 292.91522217 C-160.13671378 290.89946942 -161.22627127 290.38263376 -164.5625 290.5625 C-165.30628906 290.58441406 -166.05007812 290.60632813 -166.81640625 290.62890625 C-169.25621217 291.04354232 -170.91575905 291.66555023 -173 293 C-179.57287268 305.64013977 -178.3217272 322.58984759 -178.4140625 336.5 C-178.43282735 338.31560086 -178.45240444 340.13119349 -178.4727478 341.94677734 C-178.5235146 346.66804084 -178.56343255 351.38933245 -178.60089111 356.11071777 C-178.6484165 361.80630438 -178.70977068 367.50175767 -178.76873779 373.19723511 C-178.85627167 381.79810125 -178.92651981 390.39895072 -179 399 C-205.4 399 -231.8 399 -259 399 C-259.03738281 392.63074219 -259.07476562 386.26148438 -259.11328125 379.69921875 C-259.14358152 375.64776016 -259.17474288 371.5963444 -259.20898438 367.54492188 C-259.26317118 361.12396485 -259.31428644 354.70309255 -259.34643555 348.28198242 C-259.37257508 343.10117654 -259.41305208 337.92065756 -259.46318626 332.74003029 C-259.47978322 330.77027791 -259.49134191 328.80047599 -259.49761391 326.83066368 C-259.54171769 314.24475002 -259.89321882 303.34116506 -266 292 C-266 291.34 -266 290.68 -266 290 C-273.21157864 290.32051461 -277.74155286 291.74155286 -283 297 C-283.21290544 300.11726128 -283.30096739 303.14787726 -283.30297852 306.26733398 C-283.31563751 307.70894897 -283.31563751 307.70894897 -283.32855225 309.1796875 C-283.3544207 312.36849437 -283.36649194 315.55720855 -283.37890625 318.74609375 C-283.3950722 320.95566042 -283.41225122 323.16521989 -283.43040466 325.37477112 C-283.47618187 331.20151445 -283.5109382 337.02826727 -283.54260254 342.85510254 C-283.59439085 352.17922279 -283.65955266 361.50323705 -283.73081779 370.82722664 C-283.75369231 374.09057306 -283.76993859 377.35390601 -283.78553772 380.61729431 C-283.79894343 382.61262153 -283.81255815 384.60794736 -283.82641602 386.60327148 C-283.82902939 387.51506668 -283.83164276 388.42686188 -283.83433533 389.36628723 C-283.84123383 390.20052216 -283.84813232 391.03475708 -283.85523987 391.89427185 C-283.86102224 392.98131739 -283.86102224 392.98131739 -283.86692142 394.09032345 C-284 396 -284 396 -285 399 C-295.67419698 399.02312328 -306.34838806 399.04091501 -317.02260494 399.05181217 C-321.97853922 399.05704103 -326.93445642 399.06413874 -331.89038086 399.07543945 C-336.66898836 399.08626822 -341.44757938 399.09227681 -346.2261982 399.09487724 C-348.05353619 399.09673151 -349.88087324 399.10035216 -351.70820427 399.10573006 C-354.25853329 399.11294036 -356.80879337 399.11399095 -359.35913086 399.11352539 C-360.12229614 399.11712067 -360.88546143 399.12071594 -361.67175293 399.12442017 C-366.88594784 399.11405216 -366.88594784 399.11405216 -368 398 C-368.16220136 395.14845773 -368.26037705 392.31917908 -368.31640625 389.46484375 C-368.34778183 388.13142693 -368.34778183 388.13142693 -368.37979126 386.77107239 C-368.44672272 383.82664407 -368.50537228 380.88213403 -368.5625 377.9375 C-368.58301422 376.9307019 -368.60352844 375.92390381 -368.62466431 374.88659668 C-370.82842684 265.48900898 -370.82842684 265.48900898 -345.6640625 234.66015625 C-344 233 -344 233 -342 233 C-342 232.34 -342 231.68 -342 231 C-341.34 231 -340.68 231 -340 231 C-340 230.34 -340 229.68 -340 229 C-330.99276201 221.30162628 -321.03922352 216.1296575 -310 212 C-308.93265625 211.60039062 -307.8653125 211.20078125 -306.765625 210.7890625 C-286.07329975 203.80408976 -260.33898891 200.98614734 -240.14453125 210.83984375 C-233.56836849 214.39744 -227.49924546 218.12648124 -221.88671875 223.09375 C-219.95609066 224.27124556 -219.95609066 224.27124556 -217.54296875 223.359375 C-215.01137924 222.00608291 -212.88750985 220.51237609 -210.625 218.75 C-204.25144031 214.22166587 -197.37110148 211.43973077 -190 209 C-189.35708008 208.78682129 -188.71416016 208.57364258 -188.05175781 208.35400391 C-171.85580156 203.24055853 -153.17397153 202.62723493 -137 208 C-134.52311705 208.90601152 -134.52311705 208.90601152 -132 209 C-129.70155612 207.64830228 -129.70155612 207.64830228 -127.5625 205.5625 C-109.19267964 190.04176551 -87.64252661 185.30831522 -64 187 C-57.92517211 187.90599728 -51.51054081 189.2447296 -46 192 C-46.495 191.21625 -46.99 190.4325 -47.5 189.625 C-49 187 -49 187 -49 185 C-49.66 185 -50.32 185 -51 185 C-58.31341468 168.70806282 -54.39701675 153.56028755 -48.3671875 137.51953125 C-42.66432853 123.25256953 -35.40939242 109.59699371 -28.44702148 95.9152832 C-24.16165802 87.47570908 -20.00029548 78.99933651 -16.09765625 70.375 C-15.55643127 69.18468422 -15.55643127 69.18468422 -15.00427246 67.97032166 C-7.71017032 53.33707273 -7.71017032 53.33707273 -6 38 C-8.25427223 35.75123271 -10.80181267 34.0230553 -13.4375 32.25 C-14.83212597 31.27617731 -16.22666194 30.30222569 -17.62109375 29.328125 C-18.2442749 28.9043457 -18.86745605 28.48056641 -19.50952148 28.04394531 C-21 27 -21 27 -22 26 C-22.65167509 18.0303342 -23.06364945 11.43220336 -18 5 C-17.360625 4.030625 -16.72125 3.06125 -16.0625 2.0625 C-10.97627944 -1.36291385 -5.92827512 -0.80217584 0 0 Z M10 101 C6.292229 109.5357758 2.63197593 118.09121288 -1.0045166 126.65753174 C-2.05770275 129.13578012 -3.11434914 131.61253922 -4.17089844 134.08935547 C-6.05357582 138.50916499 -7.91742746 142.93657132 -9.77050781 147.36886597 C-10.50688441 149.1230708 -11.24875443 150.87497971 -11.99609375 152.62454224 C-13.05127337 155.09794218 -14.0863961 157.57885624 -15.1171875 160.0625 C-15.60057083 161.17799477 -15.60057083 161.17799477 -16.09371948 162.31602478 C-17.76195818 166.25831128 -17.76195818 166.25831128 -17.30541992 170.38647461 C-10.31119112 179.03148267 2.66632666 185.0974322 12 191 C12.81823242 191.51755859 13.63646484 192.03511719 14.47949219 192.56835938 C46.8529429 216.3364889 46.8529429 216.3364889 82.578125 228.8671875 C85.55735724 227.80043015 86.73148245 226.54894629 88.75 224.125 C89.43707031 223.3103125 90.12414062 222.495625 90.83203125 221.65625 C91.54746094 220.7796875 92.26289063 219.903125 93 219 C93.72574219 218.1234375 94.45148438 217.246875 95.19921875 216.34375 C97.47992597 213.57346689 99.74134036 210.78827639 102 208 C103.39468273 206.29072718 104.79053187 204.58240549 106.1875 202.875 C107.28384766 201.53308594 107.28384766 201.53308594 108.40234375 200.1640625 C110.42672481 197.69261372 112.46408042 195.23215125 114.50390625 192.7734375 C115.12177002 192.02723145 115.73963379 191.28102539 116.3762207 190.51220703 C117.59546662 189.04021581 118.81656237 187.5697542 120.03979492 186.10107422 C123.55542383 181.85287757 126.84867105 177.5255927 130 173 C120.90378564 165.11940876 111.01403647 159.20174105 100.07397461 154.30517578 C84.89368969 147.4968314 71.31348418 137.92846573 57.53710938 128.68359375 C45.75268413 120.79304075 33.73286591 113.31841159 21.4375 106.25 C20.52661621 105.72422363 19.61573242 105.19844727 18.67724609 104.65673828 C17.83371582 104.1770459 16.99018555 103.69735352 16.12109375 103.203125 C14.99852173 102.56358887 14.99852173 102.56358887 13.85327148 101.91113281 C12.04505238 100.85293402 12.04505238 100.85293402 10 101 Z M-8 221 C-6.45207884 225.08928426 -4.55650129 228.92312543 -2.5625 232.8125 C-0.0382618 237.78276607 2.20456566 242.71931077 4 248 C4.9178125 247.79503906 5.835625 247.59007812 6.78125 247.37890625 C13.17877808 245.97440691 19.48033667 244.65196633 26 244 C24.59828736 239.79486208 21.66099341 238.94263564 17.9375 237 C10.95683406 233.23701586 4.43859556 229.03262548 -2.03344727 224.45507812 C-4.78221095 222.08686064 -4.78221095 222.08686064 -8 221 Z M-76 265 C-76 265.66 -76 266.32 -76 267 C-75.34 267 -74.68 267 -74 267 C-73.67 268.32 -73.34 269.64 -73 271 C-72.67 269.68 -72.34 268.36 -72 267 C-73.32 266.34 -74.64 265.68 -76 265 Z M30 322 C29.67 323.65 29.34 325.3 29 327 C30.32 327.33 31.64 327.66 33 328 C34.10836423 326.11683841 34.10836423 326.11683841 35 324 C34.67 323.34 34.34 322.68 34 322 C32.68 322 31.36 322 30 322 Z " fill="#00bf63" transform="translate(374,4)"/>
<path d="M0 0 C1.88863014 0.00333092 1.88863014 0.00333092 3.81541443 0.00672913 C4.50806396 0.0065831 5.2007135 0.00643707 5.91435242 0.00628662 C8.21400537 0.00698577 10.51357828 0.01477823 12.81321716 0.02259827 C14.40362504 0.02446244 15.99403349 0.02588635 17.58444214 0.02688599 C21.77827021 0.03071123 25.97206386 0.04054156 30.1658783 0.05158997 C34.44220006 0.06180395 38.71852736 0.06638358 42.99485779 0.07142639 C51.39135799 0.08216383 59.78783017 0.09924032 68.18431091 0.12025452 C68.51431091 1.77025452 68.84431091 3.42025452 69.18431091 5.12025452 C70.08786316 5.1150177 70.99141541 5.10978088 71.92234802 5.10438538 C75.26382581 5.08737766 78.60525783 5.07482118 81.94676208 5.06532288 C83.39501164 5.06028351 84.84325608 5.05345199 86.29148865 5.04481506 C88.36905679 5.03273205 90.44655788 5.0270224 92.52415466 5.02259827 C93.77575378 5.01736145 95.02735291 5.01212463 96.31687927 5.00672913 C99.18431091 5.12025452 99.18431091 5.12025452 100.18431091 6.12025452 C100.27822388 8.02269214 100.3017475 9.9286391 100.2978363 11.83338928 C100.29776077 13.05457962 100.29768524 14.27576996 100.29760742 15.53396606 C100.29250003 16.87653137 100.28728402 18.21909627 100.28196716 19.56166077 C100.28010291 20.92786609 100.27867904 22.29407209 100.27767944 23.66027832 C100.27385485 27.26227147 100.26402508 30.86422452 100.25297546 34.46620178 C100.24276007 38.13929187 100.23812685 41.8123886 100.23313904 45.48548889 C100.22293295 52.69711289 100.20336129 59.90862666 100.18431091 67.12025452 C89.95431091 67.12025452 79.72431091 67.12025452 69.18431091 67.12025452 C69.18431091 71.08025452 69.18431091 75.04025452 69.18431091 79.12025452 C90.30431091 79.12025452 111.42431091 79.12025452 133.18431091 79.12025452 C150.30766166 127.31420138 150.30766166 127.31420138 156.46885681 145.17869568 C156.98607993 146.67730766 157.5048707 148.17537953 158.0252533 149.67289734 C158.74052358 151.73319429 159.44972379 153.79547197 160.15696716 155.85853577 C160.55150085 157.0036261 160.94603455 158.14871643 161.3525238 159.32850647 C162.18431091 162.12025452 162.18431091 162.12025452 162.18431091 165.12025452 C163.17431091 164.79025452 164.16431091 164.46025452 165.18431091 164.12025452 C164.77438904 163.33521545 164.36446716 162.55017639 163.94212341 161.74134827 C158.82017318 151.75477066 155.247131 143.90440404 158.69725037 132.77088928 C159.38650342 130.69750433 160.08728433 128.62792738 160.79759216 126.56166077 C161.16780991 125.4585405 161.53802765 124.35542023 161.91946411 123.21887207 C163.10209289 119.70343038 164.2993805 116.1931784 165.49681091 112.68275452 C166.29136506 110.32564739 167.08499469 107.96822842 167.87767029 105.61048889 C169.34072966 101.27146822 170.80585708 96.93319885 172.28318787 92.59901428 C172.57852921 91.73188309 172.87387054 90.86475189 173.17816162 89.97134399 C174.46127117 86.33544209 175.83049654 82.73042618 177.18431091 79.12025452 C198.96431091 79.12025452 220.74431091 79.12025452 243.18431091 79.12025452 C242.0593173 85.87021622 242.0593173 85.87021622 240.79588318 88.88270569 C240.51297424 89.56605484 240.23006531 90.24940399 239.93858337 90.95346069 C239.62908752 91.68268234 239.31959167 92.41190399 239.00071716 93.16322327 C238.67406067 93.94710922 238.34740417 94.73099518 238.010849 95.53863525 C236.9288679 98.13091065 235.83786567 100.71928653 234.74681091 103.30775452 C233.97792711 105.14491705 233.20962729 106.98232408 232.44187927 108.81996155 C230.83487754 112.66327603 229.22409025 116.50497062 227.61009216 120.34535217 C225.29476886 125.85475451 222.98829823 131.36782245 220.68431091 136.88197327 C215.00909215 150.45996538 209.3197042 164.03200994 203.62532043 177.60197449 C201.6648973 182.27434893 199.70562426 186.947205 197.74681091 191.62025452 C197.36869263 192.52209473 196.99057434 193.42393494 196.60099792 194.35310364 C191.53004745 206.45244897 186.50542009 218.56842812 181.6181488 230.74330139 C178.97435707 237.30294463 176.11764536 243.66691873 173.18431091 250.12025452 C153.38431091 250.12025452 133.58431091 250.12025452 113.18431091 250.12025452 C113.90770155 245.05652008 114.56413312 241.57842634 116.28587341 236.96009827 C116.69321716 235.8366803 117.10056091 234.71326233 117.52024841 233.55580139 C118.38182736 231.21778944 119.24904847 228.88184919 120.12181091 226.54798889 C120.52657654 225.42585999 120.93134216 224.30373108 121.34837341 223.14759827 C121.91225769 221.62767273 121.91225769 221.62767273 122.48753357 220.07704163 C123.70568753 214.90778351 122.24923518 210.75502842 119.89451599 206.12904358 C119.41987411 205.17697021 118.94523224 204.22489685 118.45620728 203.24397278 C117.93980179 202.218302 117.4233963 201.19263123 116.89134216 200.13587952 C112.25274206 190.69405195 107.99682391 181.17830766 104.07102966 171.41712952 C103.81924013 170.79114994 103.5674506 170.16517036 103.30803108 169.52022171 C101.75063978 165.63955861 100.2061526 161.75384759 98.66482162 157.86678314 C97.31460348 154.46739756 95.95432051 151.0720448 94.5947113 147.67640686 C92.70460238 142.95396886 90.81690484 138.23058537 88.93296719 133.50568199 C84.7044253 122.90185417 80.42048898 112.32080904 76.12181091 101.74525452 C75.49694394 100.20591159 74.8721835 98.66652542 74.24754333 97.12709045 C72.89389333 93.7911692 71.53943368 90.45557784 70.18431091 87.12025452 C70.14467224 87.78855286 70.10503357 88.4568512 70.06419373 89.145401 C69.14881765 103.88371437 67.87498501 118.04823222 63.18431091 132.12025452 C63.07055219 133.60796057 63.00823889 135.09992776 62.97898865 136.59169006 C62.95904343 137.49239731 62.93909821 138.39310455 62.91854858 139.32110596 C62.90183609 140.28994217 62.8851236 141.25877838 62.86790466 142.25697327 C62.84712357 143.25155045 62.82634247 144.24612762 62.80493164 145.27084351 C62.73951679 148.44974319 62.68058852 151.62872585 62.62181091 154.80775452 C62.57861803 156.96205999 62.5350035 159.11635706 62.49095154 161.27064514 C62.38384365 166.5537604 62.28206218 171.83695831 62.18431091 177.12025452 C60.9602655 177.1243634 59.73622009 177.12847229 58.4750824 177.13270569 C53.86188156 177.15474915 49.24950354 177.20929279 44.63670349 177.27284241 C42.6537118 177.29580522 40.67060191 177.31036621 38.68748474 177.31581116 C27.53258883 177.35244001 17.73277854 177.79894024 7.28709412 181.92689514 C-9.15877202 188.25212873 -32.27984665 186.632202 -48.81568909 181.12025452 C-49.14568909 185.74025452 -49.47568909 190.36025452 -49.81568909 195.12025452 C-68.95568909 195.12025452 -88.09568909 195.12025452 -107.81568909 195.12025452 C-107.8530719 190.43451233 -107.89045471 185.74877014 -107.92897034 180.92103577 C-107.95929787 177.92686054 -107.99047673 174.93274136 -108.02467346 171.93861389 C-108.07870052 167.20125903 -108.12981917 162.46401498 -108.16212463 157.72645569 C-108.18841159 153.90071597 -108.22898593 150.07535522 -108.27887535 146.24985313 C-108.29537457 144.80090794 -108.30699304 143.35189747 -108.31330299 141.90287209 C-108.3579383 132.58242681 -109.40506766 124.15938329 -111.81568909 115.12025452 C-116.43568909 114.46025452 -121.05568909 113.80025452 -125.81568909 113.12025452 C-126.47568909 114.77025452 -127.13568909 116.42025452 -127.81568909 118.12025452 C-128.47568909 119.11025452 -129.13568909 120.10025452 -129.81568909 121.12025452 C-130.44541647 124.68870969 -130.36011468 127.07413981 -128.67115784 130.31947327 C-126.8557997 132.95192886 -126.8557997 132.95192886 -122.81568909 136.12025452 C-118.85568909 136.45025452 -114.89568909 136.78025452 -110.81568909 137.12025452 C-110.81568909 156.26025452 -110.81568909 175.40025452 -110.81568909 195.12025452 C-132.63209123 195.12025452 -150.30451975 192.15089015 -166.81568909 177.12025452 C-167.54916565 176.46669983 -168.28264221 175.81314514 -169.03834534 175.13978577 C-183.63550697 161.39391658 -192.57233641 143.33769848 -193.19068909 123.12025452 C-192.55729357 104.70306179 -184.72983443 87.2385148 -171.25318909 74.62025452 C-165.53857175 69.841364 -159.16665693 65.98344679 -152.81568909 62.12025452 C-152.12861877 61.68455139 -151.44154846 61.24884827 -150.73365784 60.79994202 C-135.68335876 52.1706509 -113.43114126 51.60538203 -96.94068909 55.30775452 C-87.34115356 58.32434865 -77.22665395 63.20807709 -71.81568909 72.12025452 C-71.81568909 72.78025452 -71.81568909 73.44025452 -71.81568909 74.12025452 C-58.94568909 74.12025452 -46.07568909 74.12025452 -32.81568909 74.12025452 C-32.50318909 86.74525452 -32.50318909 86.74525452 -32.42774963 90.69300842 C-32.23066207 98.83886401 -32.23066207 98.83886401 -28.81568909 106.12025452 C-25.57211171 109.16110831 -22.60323084 109.35694672 -18.31568909 109.49525452 C-14.02814733 109.35694672 -11.05926647 109.16110831 -7.81568909 106.12025452 C-5.02844297 101.51969655 -4.35232762 97.59618231 -4.30397034 92.31556702 C-4.27901489 91.35154968 -4.27901489 91.35154968 -4.2535553 90.36805725 C-4.19623195 87.99411394 -4.16362232 85.61962545 -4.12818909 83.24525452 C-3.97350159 75.26337952 -3.97350159 75.26337952 -3.81568909 67.12025452 C-15.36568909 67.12025452 -26.91568909 67.12025452 -38.81568909 67.12025452 C-38.81568909 46.99025452 -38.81568909 26.86025452 -38.81568909 6.12025452 C-27.26568909 6.12025452 -15.71568909 6.12025452 -3.81568909 6.12025452 C-3.81568909 4.47025452 -3.81568909 2.82025452 -3.81568909 1.12025452 C-2.81568909 0.12025452 -2.81568909 0.12025452 0 0 Z M-60.81568909 83.12025452 C-59.56079164 87.77075681 -58.37234846 92.0584783 -56.12818909 96.33900452 C-49.0787817 109.87729427 -49.7912968 124.20526724 -49.87147522 139.10127258 C-49.88278751 142.60839257 -49.85418311 146.11519025 -49.82936096 149.62220764 C-49.78666923 156.45507282 -49.78682156 163.28732537 -49.81568909 170.12025452 C-39.29366116 174.83535607 -29.34763003 175.42703168 -17.87818909 175.30775452 C-16.67356018 175.30710999 -15.46893127 175.30646545 -14.22779846 175.30580139 C-7.46104004 175.27550305 -7.46104004 175.27550305 -0.81568909 174.12025452 C-0.81568909 153.99025452 -0.81568909 133.86025452 -0.81568909 113.12025452 C-3.78568909 114.77025452 -6.75568909 116.42025452 -9.81568909 118.12025452 C-18.15489004 120.20505475 -25.28850589 119.49087702 -32.81568909 115.12025452 C-40.01099792 108.85959404 -41.15440241 101.92739097 -41.94068909 92.80775452 C-42.02705627 91.87640686 -42.11342346 90.9450592 -42.20240784 89.98548889 C-42.41358919 87.69769085 -42.61555297 85.40904524 -42.81568909 83.12025452 C-48.75568909 83.12025452 -54.69568909 83.12025452 -60.81568909 83.12025452 Z " fill="#000000" transform="translate(877.8156890869141,230.87974548339844)"/>
<path d="M0 0 C1.3113353 1.0796332 2.60693151 2.17894846 3.87890625 3.3046875 C5.80953434 4.48218306 5.80953434 4.48218306 8.22265625 3.5703125 C10.75424576 2.21702041 12.87811515 0.72331359 15.140625 -1.0390625 C21.51418469 -5.56739663 28.39452352 -8.34933173 35.765625 -10.7890625 C36.73000488 -11.10883057 36.73000488 -11.10883057 37.71386719 -11.43505859 C55.89800577 -17.17622003 76.10971576 -17.00195615 93.765625 -9.7890625 C93.4253125 -9.36238281 93.085 -8.93570313 92.734375 -8.49609375 C87.88563712 -2.24173771 83.82943256 4.42951122 79.765625 11.2109375 C79.27707031 11.96117187 78.78851563 12.71140625 78.28515625 13.484375 C68.86251005 28.61859444 68.43329001 49.65526019 71.74707031 66.72412109 C76.49284501 86.74885139 90.47800104 106.15524731 107.765625 117.2109375 C119.57699569 123.98632405 131.00415605 126.51653895 144.453125 127.8984375 C146.23879883 128.09276367 146.23879883 128.09276367 148.06054688 128.29101562 C150.96148822 128.60557553 153.86303326 128.91206121 156.765625 129.2109375 C156.105625 129.5409375 155.445625 129.8709375 154.765625 130.2109375 C154.765625 146.3809375 154.765625 162.5509375 154.765625 179.2109375 C134.34132798 179.25104631 134.34132798 179.25104631 125.66601562 179.25976562 C119.73574942 179.2657541 113.80549858 179.27285453 107.87524414 179.28637695 C103.09663664 179.29720572 98.31804562 179.30321431 93.5394268 179.30581474 C91.71208881 179.30766901 89.88475176 179.31128966 88.05742073 179.31666756 C85.50709171 179.32387786 82.95683163 179.32492845 80.40649414 179.32446289 C79.64332886 179.32805817 78.88016357 179.33165344 78.09387207 179.33535767 C72.87967716 179.32498966 72.87967716 179.32498966 71.765625 178.2109375 C71.66683769 175.07147571 71.63265189 171.95336404 71.63964844 168.81347656 C71.63684624 167.33300842 71.63684624 167.33300842 71.63398743 165.82263184 C71.62997269 163.6711071 71.62790761 161.51957807 71.62752533 159.36804962 C71.62412325 154.79910299 71.60277662 150.2303004 71.58229446 145.66140366 C71.5442007 137.14501868 71.51301043 128.62878445 71.51513672 120.11230469 C71.51592284 114.19763357 71.49259896 108.28348472 71.4532547 102.36894989 C71.44277464 100.11232601 71.44128533 97.855642 71.44890594 95.59900665 C71.4585055 92.44075363 71.4373851 89.28408632 71.40917969 86.12597656 C71.41937637 85.19174866 71.42957306 84.25752075 71.44007874 83.29498291 C71.36719299 78.74737921 71.24084963 76.82291621 68.37017822 73.12615967 C65.62891122 71.11040692 64.53935373 70.59357126 61.203125 70.7734375 C60.45933594 70.79535156 59.71554688 70.81726563 58.94921875 70.83984375 C56.50941283 71.25447982 54.84986595 71.87648773 52.765625 73.2109375 C46.19275232 85.85107727 47.4438978 102.80078509 47.3515625 116.7109375 C47.33279765 118.52653836 47.31322056 120.34213099 47.2928772 122.15771484 C47.2421104 126.87897834 47.20219245 131.60026995 47.16473389 136.32165527 C47.1172085 142.01724188 47.05585432 147.71269517 46.99688721 153.40817261 C46.90935333 162.00903875 46.83910519 170.60988822 46.765625 179.2109375 C20.365625 179.2109375 -6.034375 179.2109375 -33.234375 179.2109375 C-33.27175781 172.84167969 -33.30914062 166.47242188 -33.34765625 159.91015625 C-33.37795652 155.85869766 -33.40911788 151.8072819 -33.44335938 147.75585938 C-33.49754618 141.33490235 -33.54866144 134.91403005 -33.58081055 128.49291992 C-33.60695008 123.31211404 -33.64742708 118.13159506 -33.69756126 112.95096779 C-33.71415822 110.98121541 -33.72571691 109.01141349 -33.73198891 107.04160118 C-33.77609269 94.45568752 -34.12759382 83.55210256 -40.234375 72.2109375 C-40.234375 71.5509375 -40.234375 70.8909375 -40.234375 70.2109375 C-47.44595364 70.53145211 -51.97592786 71.95249036 -57.234375 77.2109375 C-57.44728044 80.32819878 -57.53534239 83.35881476 -57.53735352 86.47827148 C-57.55001251 87.91988647 -57.55001251 87.91988647 -57.56292725 89.390625 C-57.5887957 92.57943187 -57.60086694 95.76814605 -57.61328125 98.95703125 C-57.6294472 101.16659792 -57.64662622 103.37615739 -57.66477966 105.58570862 C-57.71055687 111.41245195 -57.7453132 117.23920477 -57.77697754 123.06604004 C-57.82876585 132.39016029 -57.89392766 141.71417455 -57.96519279 151.03816414 C-57.98806731 154.30151056 -58.00431359 157.56484351 -58.01991272 160.82823181 C-58.03331843 162.82355903 -58.04693315 164.81888486 -58.06079102 166.81420898 C-58.06340439 167.72600418 -58.06601776 168.63779938 -58.06871033 169.57722473 C-58.07560883 170.41145966 -58.08250732 171.24569458 -58.08961487 172.10520935 C-58.09539724 173.19225489 -58.09539724 173.19225489 -58.10129642 174.30126095 C-58.234375 176.2109375 -58.234375 176.2109375 -59.234375 179.2109375 C-69.90857198 179.23406078 -80.58276306 179.25185251 -91.25697994 179.26274967 C-96.21291422 179.26797853 -101.16883142 179.27507624 -106.12475586 179.28637695 C-110.90336336 179.29720572 -115.68195438 179.30321431 -120.4605732 179.30581474 C-122.28791119 179.30766901 -124.11524824 179.31128966 -125.94257927 179.31666756 C-128.49290829 179.32387786 -131.04316837 179.32492845 -133.59350586 179.32446289 C-134.35667114 179.32805817 -135.11983643 179.33165344 -135.90612793 179.33535767 C-141.12032284 179.32498966 -141.12032284 179.32498966 -142.234375 178.2109375 C-142.39657636 175.35939523 -142.49475205 172.53011658 -142.55078125 169.67578125 C-142.5716983 168.7868367 -142.59261536 167.89789215 -142.61416626 166.98200989 C-142.68109772 164.03758157 -142.73974728 161.09307153 -142.796875 158.1484375 C-142.81738922 157.1416394 -142.83790344 156.13484131 -142.85903931 155.09753418 C-145.06280184 45.69994648 -145.06280184 45.69994648 -119.8984375 14.87109375 C-118.234375 13.2109375 -118.234375 13.2109375 -116.234375 13.2109375 C-116.234375 12.5509375 -116.234375 11.8909375 -116.234375 11.2109375 C-115.574375 11.2109375 -114.914375 11.2109375 -114.234375 11.2109375 C-114.234375 10.5509375 -114.234375 9.8909375 -114.234375 9.2109375 C-105.22713701 1.51256378 -95.27359852 -3.659405 -84.234375 -7.7890625 C-83.16703125 -8.18867188 -82.0996875 -8.58828125 -81 -9 C-54.06665327 -18.09171349 -23.08831372 -18.48679665 0 0 Z " fill="#00bf63" transform="translate(148.234375,223.7890625)"/>
<path d="M0 0 C10.7112767 2.74741222 18.33136685 7.5052733 24.3125 16.8125 C30.86668099 28.49604003 32.61063532 40.88155332 29.0625 53.75 C28.70285156 55.00296875 28.34320313 56.2559375 27.97265625 57.546875 C27.17974639 60.36186423 26.52119114 63.12521938 26 66 C30.92341647 70.58772898 36.02735313 73.89772593 41.87890625 77.20703125 C44.87775925 78.92977659 47.7836393 80.74746875 50.6875 82.625 C54.55571227 85.11210092 58.46552815 87.40866836 62.5078125 89.59765625 C64.29786226 90.60490995 66.06100766 91.66054376 67.8046875 92.74609375 C76.72813969 98.29963047 85.96196186 103.15282375 95.3125 107.9375 C163.38126896 142.79394677 163.38126896 142.79394677 171 164 C171.5625 167.3125 171.5625 167.3125 171 171 C170.87367188 171.84046875 170.74734375 172.6809375 170.6171875 173.546875 C166.790801 190.52371624 152.71225091 205.67906623 142 219 C141.24332031 219.94875 140.48664063 220.8975 139.70703125 221.875 C135.33489816 227.29313395 130.8003449 232.52798387 126.109375 237.671875 C124.24324433 239.73153033 122.42930212 241.82388895 120.625 243.9375 C119.42422748 245.29837552 118.21505231 246.6518588 117 248 C115.78376953 249.35158203 115.78376953 249.35158203 114.54296875 250.73046875 C107.28980957 258.41944007 100.24892065 262.91702645 90.25 266.25 C86.13365406 265.933358 84.60191392 264.542547 81.4921875 261.953125 C78.34933576 259.49007505 75.04057038 257.43579585 71.625 255.375 C71.02494141 255.0032666 70.42488281 254.6315332 69.80664062 254.24853516 C59.95602066 248.32712459 50.99700053 246.32440296 39.5625 245.4375 C37.06280397 245.24012207 34.56399577 245.03104572 32.06640625 244.80859375 C30.97271729 244.72407959 29.87902832 244.63956543 28.75219727 244.55249023 C25.71835611 243.94346136 24.93131381 243.31531986 23 241 C20.96182131 239.79134579 18.89477513 238.63099409 16.8125 237.5 C10.33754894 233.91890108 4.27465406 229.875045 -1.7565918 225.59375 C-4.48704193 223.66661566 -6.80966287 222.06344571 -10 221 C-11.69282176 219.35990548 -13.35679537 217.68980297 -15 216 C-18.04576134 213.38144941 -21.18092238 210.87735296 -24.3125 208.36230469 C-26.17520496 206.8585585 -28.02508265 205.33975741 -29.875 203.8203125 C-31.20807075 202.73405268 -32.54140187 201.6481123 -33.875 200.5625 C-34.50519043 200.04228271 -35.13538086 199.52206543 -35.78466797 198.98608398 C-39.11494273 196.29249244 -41.98158091 194.55668487 -46 193 C-49 188.03448276 -49 188.03448276 -49 185 C-49.66 185 -50.32 185 -51 185 C-58.31341468 168.70806282 -54.39701675 153.56028755 -48.3671875 137.51953125 C-42.66432853 123.25256953 -35.40939242 109.59699371 -28.44702148 95.9152832 C-24.16165802 87.47570908 -20.00029548 78.99933651 -16.09765625 70.375 C-15.7368396 69.58145615 -15.37602295 68.78791229 -15.00427246 67.97032166 C-7.71017032 53.33707273 -7.71017032 53.33707273 -6 38 C-8.25427223 35.75123271 -10.80181267 34.0230553 -13.4375 32.25 C-14.83212597 31.27617731 -16.22666194 30.30222569 -17.62109375 29.328125 C-18.2442749 28.9043457 -18.86745605 28.48056641 -19.50952148 28.04394531 C-21 27 -21 27 -22 26 C-22.65167509 18.0303342 -23.06364945 11.43220336 -18 5 C-17.0409375 3.5459375 -17.0409375 3.5459375 -16.0625 2.0625 C-10.97627944 -1.36291385 -5.92827512 -0.80217584 0 0 Z M10 101 C6.292229 109.5357758 2.63197593 118.09121288 -1.0045166 126.65753174 C-2.05770275 129.13578012 -3.11434914 131.61253922 -4.17089844 134.08935547 C-6.05357582 138.50916499 -7.91742746 142.93657132 -9.77050781 147.36886597 C-10.50688441 149.1230708 -11.24875443 150.87497971 -11.99609375 152.62454224 C-13.05127337 155.09794218 -14.0863961 157.57885624 -15.1171875 160.0625 C-15.60057083 161.17799477 -15.60057083 161.17799477 -16.09371948 162.31602478 C-17.76195818 166.25831128 -17.76195818 166.25831128 -17.30541992 170.38647461 C-10.31119112 179.03148267 2.66632666 185.0974322 12 191 C12.81823242 191.51755859 13.63646484 192.03511719 14.47949219 192.56835938 C46.8529429 216.3364889 46.8529429 216.3364889 82.578125 228.8671875 C85.55735724 227.80043015 86.73148245 226.54894629 88.75 224.125 C89.43707031 223.3103125 90.12414062 222.495625 90.83203125 221.65625 C91.54746094 220.7796875 92.26289063 219.903125 93 219 C93.72574219 218.1234375 94.45148438 217.246875 95.19921875 216.34375 C97.47992597 213.57346689 99.74134036 210.78827639 102 208 C103.39468273 206.29072718 104.79053187 204.58240549 106.1875 202.875 C107.28384766 201.53308594 107.28384766 201.53308594 108.40234375 200.1640625 C110.42672481 197.69261372 112.46408042 195.23215125 114.50390625 192.7734375 C115.12177002 192.02723145 115.73963379 191.28102539 116.3762207 190.51220703 C117.59546662 189.04021581 118.81656237 187.5697542 120.03979492 186.10107422 C123.55542383 181.85287757 126.84867105 177.5255927 130 173 C120.90378564 165.11940876 111.01403647 159.20174105 100.07397461 154.30517578 C84.89368969 147.4968314 71.31348418 137.92846573 57.53710938 128.68359375 C45.75268413 120.79304075 33.73286591 113.31841159 21.4375 106.25 C20.52661621 105.72422363 19.61573242 105.19844727 18.67724609 104.65673828 C17.83371582 104.1770459 16.99018555 103.69735352 16.12109375 103.203125 C14.99852173 102.56358887 14.99852173 102.56358887 13.85327148 101.91113281 C12.04505238 100.85293402 12.04505238 100.85293402 10 101 Z " fill="#00bf63" transform="translate(374,4)"/>
<path d="M0 0 C0.88300781 0.30421875 1.76601563 0.6084375 2.67578125 0.921875 C9.91540403 4.00256554 15.45399793 9.52453476 21.23828125 14.71484375 C24.54091256 17.65417716 27.96536249 20.24311607 31.5625 22.8125 C42.38894379 30.83101586 48.64189446 43.0778782 52 56 C52.83660156 55.7834375 53.67320312 55.566875 54.53515625 55.34375 C63.52329839 53.19376251 71.75680337 52.48855137 81 53 C81.83047852 53.04253906 82.66095703 53.08507812 83.51660156 53.12890625 C105.22944972 54.36376017 124.20627933 62.62966294 140 78 C143.27125889 81.81562079 146.15414771 85.85958535 149 90 C149.77537109 91.12535156 149.77537109 91.12535156 150.56640625 92.2734375 C152.15211767 94.92152324 153.13817933 97.08639075 152.66796875 100.1953125 C151.35734033 104.10617165 150.52368643 105.65087572 147 108 C146.36384766 106.42412109 146.36384766 106.42412109 145.71484375 104.81640625 C142.35031444 96.6831993 139.02031935 89.55272855 133 83 C132.50371094 82.401875 132.00742187 81.80375 131.49609375 81.1875 C121.56010665 70.03130396 105.53791857 64.19063379 91 63 C87.85240588 62.87183733 84.71233922 62.85974654 81.5625 62.875 C80.76779297 62.87113281 79.97308594 62.86726563 79.15429688 62.86328125 C63.1148995 62.88938279 48.9416142 66.89836892 36.27734375 77.21875 C34 79 34 79 32 79 C32 79.66 32 80.32 32 81 C31.34 81 30.68 81 30 81 C30 81.66 30 82.32 30 83 C29.34 83 28.68 83 28 83 C28 83.66 28 84.32 28 85 C27.34 85 26.68 85 26 85 C25.60361328 85.85851562 25.60361328 85.85851562 25.19921875 86.734375 C23.93448073 89.12378234 22.45298708 91.10272629 20.8125 93.25 C10.6148845 107.7480713 4.97277592 125.82514635 7.50390625 143.5234375 C10.98692611 163.14776656 20.68177195 180.4726026 37.1015625 192.21875 C54.86519167 203.58068942 74.2707659 209.21271122 95.20214844 204.96972656 C106.87159315 202.20878072 118.01161278 196.72582224 126.58203125 188.25 C128 187 128 187 130 187 C130 186.34 130 185.68 130 185 C130.66 185 131.32 185 132 185 C132.226875 184.443125 132.45375 183.88625 132.6875 183.3125 C134.35896766 180.36753316 136.55276352 178.31843456 139 176 C140.05246939 188.04492742 140.05246939 188.04492742 137.79296875 192.2421875 C135.97916998 194.08572068 134.12563859 195.52693627 132 197 C131.25105469 197.58007812 130.50210938 198.16015625 129.73046875 198.7578125 C111.04961463 212.70055015 89.48658618 217.26346062 66.57373047 214.73193359 C51.82592742 212.45287419 38.21956822 205.76431042 27 196 C26.42507813 195.566875 25.85015625 195.13375 25.2578125 194.6875 C13.84944714 185.85521714 4.17266229 170.64960698 1.28515625 156.49609375 C1.14400391 155.26052734 1.14400391 155.26052734 1 154 C0.11248047 154.30744141 0.11248047 154.30744141 -0.79296875 154.62109375 C-1.58316406 154.89050781 -2.37335938 155.15992188 -3.1875 155.4375 C-3.96480469 155.70433594 -4.74210937 155.97117187 -5.54296875 156.24609375 C-23.14096212 161.64579601 -47.87542191 158.50072168 -64 150 C-64.83273437 149.58105469 -65.66546875 149.16210938 -66.5234375 148.73046875 C-80.33141275 141.1731069 -91.47164968 128.63467892 -99 115 C-99.66515625 113.86304688 -99.66515625 113.86304688 -100.34375 112.703125 C-109.55284562 95.96952443 -110.43929096 75.27777772 -106.75 56.8125 C-100.31176392 34.80752881 -85.33696141 16.09247542 -65.61279297 4.80395508 C-45.76013493 -5.91047568 -21.19013561 -7.31535177 0 0 Z M-28 74 C-28 74.66 -28 75.32 -28 76 C-27.34 76 -26.68 76 -26 76 C-25.67 77.32 -25.34 78.64 -25 80 C-24.67 78.68 -24.34 77.36 -24 76 C-25.32 75.34 -26.64 74.68 -28 74 Z " fill="#00bf63" transform="translate(326,195)"/>
<path d="M0 0 C0.33 1.32 0.66 2.64 1 4 C1.90355225 3.99476318 2.80710449 3.98952637 3.73803711 3.98413086 C7.07951489 3.96712314 10.42094692 3.95456667 13.76245117 3.94506836 C15.21070073 3.94002899 16.65894517 3.93319747 18.10717773 3.92456055 C20.18474588 3.91247753 22.26224697 3.90676789 24.33984375 3.90234375 C25.59144287 3.89710693 26.84304199 3.89187012 28.13256836 3.88647461 C31 4 31 4 32 5 C32.09391296 6.90243762 32.11743658 8.80838459 32.11352539 10.71313477 C32.11344986 11.9343251 32.11337433 13.15551544 32.11329651 14.41371155 C32.10818911 15.75627686 32.10297311 17.09884175 32.09765625 18.44140625 C32.09579199 19.80761158 32.09436813 21.17381757 32.09336853 22.5400238 C32.08954394 26.14201695 32.07971417 29.74397 32.06866455 33.34594727 C32.05844916 37.01903735 32.05381594 40.69213408 32.04882812 44.36523438 C32.03862203 51.57685837 32.01905038 58.78837215 32 66 C21.77 66 11.54 66 1 66 C1 69.96 1 73.92 1 78 C22.12 78 43.24 78 65 78 C82.12335075 126.19394686 82.12335075 126.19394686 88.2845459 144.05844116 C88.80176901 145.55705314 89.32055979 147.05512502 89.84094238 148.55264282 C90.55621266 150.61293977 91.26541288 152.67521745 91.97265625 154.73828125 C92.36718994 155.88337158 92.76172363 157.02846191 93.16821289 158.20825195 C94 161 94 161 94 164 C94.99 163.67 95.98 163.34 97 163 C96.59007812 162.21496094 96.18015625 161.42992187 95.7578125 160.62109375 C90.63586227 150.63451615 87.06282009 142.78414953 90.51293945 131.65063477 C91.20219251 129.57724981 91.90297342 127.50767287 92.61328125 125.44140625 C92.98349899 124.33828598 93.35371674 123.23516571 93.7351532 122.09861755 C94.91778197 118.58317586 96.11506959 115.07292388 97.3125 111.5625 C98.10705414 109.20539288 98.90068378 106.8479739 99.69335938 104.49023438 C101.15641874 100.1512137 102.62154617 95.81294433 104.09887695 91.47875977 C104.39421829 90.61162857 104.68955963 89.74449738 104.99385071 88.85108948 C106.27696026 85.21518757 107.64618563 81.61017166 109 78 C130.78 78 152.56 78 175 78 C173.87500638 84.74996171 173.87500638 84.74996171 172.61157227 87.76245117 C172.32866333 88.44580032 172.04575439 89.12914948 171.75427246 89.83320618 C171.44477661 90.56242783 171.13528076 91.29164948 170.81640625 92.04296875 C170.48974976 92.82685471 170.16309326 93.61074066 169.82653809 94.41838074 C168.74455699 97.01065614 167.65355476 99.59903201 166.5625 102.1875 C165.7936162 104.02466253 165.02531637 105.86206956 164.25756836 107.69970703 C162.65056662 111.54302152 161.03977934 115.3847161 159.42578125 119.22509766 C157.11045795 124.73449999 154.80398731 130.24756793 152.5 135.76171875 C146.82478123 149.33971086 141.13539329 162.91175542 135.44100952 176.48171997 C133.48058639 181.15409442 131.52131335 185.82695048 129.5625 190.5 C129.18438171 191.40184021 128.80626343 192.30368042 128.41668701 193.23284912 C123.34573654 205.33219446 118.32110917 217.44817361 113.43383789 229.62304688 C110.79004615 236.18269011 107.93333445 242.54666421 105 249 C85.2 249 65.4 249 45 249 C45.72339063 243.93626557 46.37982221 240.45817183 48.1015625 235.83984375 C48.71257813 234.1547168 48.71257813 234.1547168 49.3359375 232.43554688 C50.19751644 230.09753492 51.06473755 227.76159467 51.9375 225.42773438 C52.34226562 224.30560547 52.74703125 223.18347656 53.1640625 222.02734375 C53.53998535 221.01406006 53.9159082 220.00077637 54.30322266 218.95678711 C55.52137662 213.787529 54.06492426 209.6347739 51.71020508 205.00878906 C50.99824226 203.58067902 50.99824226 203.58067902 50.27189636 202.12371826 C49.75549088 201.09804749 49.23908539 200.07237671 48.70703125 199.015625 C44.06843115 189.57379743 39.81251299 180.05805315 35.88671875 170.296875 C35.63492922 169.67089542 35.38313969 169.04491585 35.12372017 168.39996719 C33.56632887 164.5193041 32.02184169 160.63359308 30.48051071 156.74652863 C29.13029257 153.34714304 27.7700096 149.95179028 26.41040039 146.55615234 C24.52029147 141.83371434 22.63259392 137.11033086 20.74865627 132.38542747 C16.52011438 121.78159965 12.23617806 111.20055452 7.9375 100.625 C7.04671267 98.43056946 6.15622129 96.23601905 5.26579285 94.04144287 C4.17776116 91.36073215 3.08880115 88.68039829 2 86 C1.67 91.28 1.34 96.56 1 102 C0.67 102 0.34 102 0 102 C0 68.34 0 34.68 0 0 Z " fill="#05CC69" transform="translate(946,232)"/>
<path d="M0 0 C3.03981793 2.51834288 5.86443223 5.08277809 7.9296875 8.484375 C7.9296875 9.144375 7.9296875 9.804375 7.9296875 10.484375 C-2.9603125 10.484375 -13.8503125 10.484375 -25.0703125 10.484375 C-23.74077297 54.84362875 -23.74077297 54.84362875 -4.0703125 93.484375 C-4.0703125 94.144375 -4.0703125 94.804375 -4.0703125 95.484375 C-3.4103125 95.484375 -2.7503125 95.484375 -2.0703125 95.484375 C-2.0703125 96.144375 -2.0703125 96.804375 -2.0703125 97.484375 C-1.4103125 97.484375 -0.7503125 97.484375 -0.0703125 97.484375 C-0.0703125 98.144375 -0.0703125 98.804375 -0.0703125 99.484375 C0.50203125 99.74863281 1.074375 100.01289063 1.6640625 100.28515625 C4.05346984 101.54989427 6.03241379 103.03138792 8.1796875 104.671875 C14.92761675 109.49471933 22.29454102 112.31384807 29.9296875 115.484375 C29.9296875 120.764375 29.9296875 126.044375 29.9296875 131.484375 C10.7896875 131.484375 -8.3503125 131.484375 -28.0703125 131.484375 C-28.10769531 126.79863281 -28.14507813 122.11289062 -28.18359375 117.28515625 C-28.21392128 114.29098103 -28.24510014 111.29686184 -28.27929688 108.30273438 C-28.33332393 103.56537952 -28.38444258 98.82813547 -28.41674805 94.09057617 C-28.443035 90.26483646 -28.48360934 86.4394757 -28.53349876 82.61397362 C-28.54999798 81.16502843 -28.56161646 79.71601796 -28.56792641 78.26699257 C-28.61256172 68.9465473 -29.65969107 60.52350377 -32.0703125 51.484375 C-36.6903125 50.824375 -41.3103125 50.164375 -46.0703125 49.484375 C-46.7303125 51.134375 -47.3903125 52.784375 -48.0703125 54.484375 C-48.7303125 55.474375 -49.3903125 56.464375 -50.0703125 57.484375 C-50.70003988 61.05283017 -50.61473809 63.43826029 -48.92578125 66.68359375 C-47.11042311 69.31604935 -47.11042311 69.31604935 -43.0703125 72.484375 C-39.1103125 72.814375 -35.1503125 73.144375 -31.0703125 73.484375 C-31.0703125 92.624375 -31.0703125 111.764375 -31.0703125 131.484375 C-52.88671464 131.484375 -70.55914317 128.51501063 -87.0703125 113.484375 C-87.80378906 112.83082031 -88.53726563 112.17726563 -89.29296875 111.50390625 C-103.89013038 97.75803706 -112.82695983 79.70181896 -113.4453125 59.484375 C-112.81191698 41.06718228 -104.98445784 23.60263529 -91.5078125 10.984375 C-85.79319516 6.20548448 -79.42128034 2.34756727 -73.0703125 -1.515625 C-72.38324219 -1.95132812 -71.69617188 -2.38703125 -70.98828125 -2.8359375 C-51.09736322 -14.24066251 -18.43318826 -13.49448499 0 0 Z " fill="#07CC6A" transform="translate(798.0703125,294.515625)"/>
<path d="M0 0 C1.58669495 -0.00472824 1.58669495 -0.00472824 3.20544434 -0.009552 C4.93196228 -0.00651566 4.93196228 -0.00651566 6.69335938 -0.00341797 C8.45226501 -0.00485306 8.45226501 -0.00485306 10.2467041 -0.00631714 C12.73169 -0.00699917 15.21667766 -0.00514331 17.70166016 -0.00097656 C21.52054825 0.00437134 25.33931872 -0.00092083 29.15820312 -0.00732422 C31.56575547 -0.00666344 33.97330774 -0.00538229 36.38085938 -0.00341797 C38.10737732 -0.00645432 38.10737732 -0.00645432 39.86877441 -0.009552 C40.92657104 -0.00639984 41.98436768 -0.00324768 43.07421875 0 C44.47867249 0.00119339 44.47867249 0.00119339 45.91149902 0.00241089 C48.03710938 0.12939453 48.03710938 0.12939453 49.03710938 1.12939453 C49.28384625 3.7612545 49.45997944 6.36565948 49.58789062 9.00439453 C49.62972977 9.84301025 49.67156891 10.68162598 49.7146759 11.5456543 C50.19509279 22.21874862 50.22314749 32.89598657 50.22241211 43.578125 C50.22458911 47.09664191 50.24279701 50.61483928 50.26171875 54.13330078 C50.29179884 66.05275683 50.00600949 77.89814185 49.15429688 89.78955078 C49.07708908 90.88996704 48.99988129 91.9903833 48.92033386 93.12414551 C48.23275102 101.78878485 46.58443648 109.8257698 44.03710938 118.12939453 C43.69414157 119.46028219 43.35573739 120.7924708 43.03710938 122.12939453 C42.37710938 122.12939453 41.71710937 122.12939453 41.03710938 122.12939453 C40.89273438 123.07814453 40.74835937 124.02689453 40.59960938 125.00439453 C40.03710938 128.12939453 40.03710938 128.12939453 39.03710938 130.12939453 C38.37710938 130.12939453 37.71710937 130.12939453 37.03710938 130.12939453 C36.78960938 130.99564453 36.54210937 131.86189453 36.28710938 132.75439453 C34.95910914 136.33999517 33.3508009 139.09267441 31.03710938 142.12939453 C30.37710938 142.12939453 29.71710937 142.12939453 29.03710938 142.12939453 C29.03710938 142.78939453 29.03710938 143.44939453 29.03710938 144.12939453 C28.37710938 144.12939453 27.71710937 144.12939453 27.03710938 144.12939453 C27.03710938 144.78939453 27.03710938 145.44939453 27.03710938 146.12939453 C26.37710938 146.12939453 25.71710937 146.12939453 25.03710938 146.12939453 C25.03710938 146.78939453 25.03710938 147.44939453 25.03710938 148.12939453 C16.44175203 155.64187221 3.80927188 164.12939453 -7.96289062 164.12939453 C-7.96289062 164.78939453 -7.96289062 165.44939453 -7.96289062 166.12939453 C-10.60289062 166.12939453 -13.24289062 166.12939453 -15.96289062 166.12939453 C-14.64289062 165.79939453 -13.32289063 165.46939453 -11.96289062 165.12939453 C-12.00166824 164.00092354 -12.00166824 164.00092354 -12.04122925 162.84965515 C-12.28070188 155.71634983 -12.48948474 148.5830844 -12.66491508 141.44793987 C-12.7561341 137.78071275 -12.8586747 134.11457345 -12.98828125 130.44848633 C-13.11321865 126.90212522 -13.20685883 123.35612288 -13.27997208 119.80832863 C-13.32889259 117.81443332 -13.40916256 115.82138521 -13.49020386 113.82853699 C-13.59339417 107.57653895 -13.47318707 103.31090487 -9.98803711 98.02368164 C-4.96529428 89.91062355 -6.13266526 80.40677101 -6.19335938 71.18408203 C-6.18463631 69.16194319 -6.1731421 67.13981459 -6.15901184 65.1177063 C-6.1287648 59.82769465 -6.13302235 54.53829136 -6.14562988 49.24822998 C-6.15510508 42.79209934 -6.12664233 36.33604533 -6.10056782 29.87997627 C-6.08055159 24.86487103 -6.06731164 19.85007726 -6.07475281 14.83493042 C-6.07443558 13.91867386 -6.07411835 13.0024173 -6.0737915 12.05839539 C-6.07327469 10.3411272 -6.07652726 8.62385242 -6.0841217 6.90660095 C-6.07385122 0.00516106 -6.07385122 0.00516106 0 0 Z " fill="#04CB67" transform="translate(888.962890625,239.87060546875)"/>
<path d="M0 0 C0.88300781 0.30421875 1.76601563 0.6084375 2.67578125 0.921875 C9.91540403 4.00256554 15.45399793 9.52453476 21.23828125 14.71484375 C24.54091256 17.65417716 27.96536249 20.24311607 31.5625 22.8125 C42.38894379 30.83101586 48.64189446 43.0778782 52 56 C52.83660156 55.7834375 53.67320312 55.566875 54.53515625 55.34375 C63.52329839 53.19376251 71.75680337 52.48855137 81 53 C81.83047852 53.04253906 82.66095703 53.08507812 83.51660156 53.12890625 C105.22944972 54.36376017 124.20627933 62.62966294 140 78 C143.27125889 81.81562079 146.15414771 85.85958535 149 90 C149.77537109 91.12535156 149.77537109 91.12535156 150.56640625 92.2734375 C152.15211767 94.92152324 153.13817933 97.08639075 152.66796875 100.1953125 C151.35734033 104.10617165 150.52368643 105.65087572 147 108 C146.36384766 106.42412109 146.36384766 106.42412109 145.71484375 104.81640625 C142.35031444 96.6831993 139.02031935 89.55272855 133 83 C132.50371094 82.401875 132.00742187 81.80375 131.49609375 81.1875 C121.56010665 70.03130396 105.53791857 64.19063379 91 63 C87.85240588 62.87183733 84.71233922 62.85974654 81.5625 62.875 C80.76779297 62.87113281 79.97308594 62.86726563 79.15429688 62.86328125 C63.1148995 62.88938279 48.9416142 66.89836892 36.27734375 77.21875 C34 79 34 79 32 79 C32 79.66 32 80.32 32 81 C31.34 81 30.68 81 30 81 C30 81.66 30 82.32 30 83 C29.34 83 28.68 83 28 83 C28 83.66 28 84.32 28 85 C27.34 85 26.68 85 26 85 C25.60361328 85.85851562 25.60361328 85.85851562 25.19921875 86.734375 C23.93448073 89.12378234 22.45298708 91.10272629 20.8125 93.25 C10.6148845 107.7480713 4.97277592 125.82514635 7.50390625 143.5234375 C10.98692611 163.14776656 20.68177195 180.4726026 37.1015625 192.21875 C54.86519167 203.58068942 74.2707659 209.21271122 95.20214844 204.96972656 C106.87159315 202.20878072 118.01161278 196.72582224 126.58203125 188.25 C128 187 128 187 130 187 C130 186.34 130 185.68 130 185 C130.66 185 131.32 185 132 185 C132.226875 184.443125 132.45375 183.88625 132.6875 183.3125 C134.35896766 180.36753316 136.55276352 178.31843456 139 176 C140.05246939 188.04492742 140.05246939 188.04492742 137.79296875 192.2421875 C135.97916998 194.08572068 134.12563859 195.52693627 132 197 C131.25105469 197.58007812 130.50210938 198.16015625 129.73046875 198.7578125 C111.04961463 212.70055015 89.48658618 217.26346062 66.57373047 214.73193359 C51.82592742 212.45287419 38.21956822 205.76431042 27 196 C26.42507813 195.566875 25.85015625 195.13375 25.2578125 194.6875 C13.84944714 185.85521714 4.17266229 170.64960698 1.28515625 156.49609375 C1.14400391 155.26052734 1.14400391 155.26052734 1 154 C0.11248047 154.30744141 0.11248047 154.30744141 -0.79296875 154.62109375 C-1.58316406 154.89050781 -2.37335938 155.15992188 -3.1875 155.4375 C-3.96480469 155.70433594 -4.74210937 155.97117187 -5.54296875 156.24609375 C-23.14096212 161.64579601 -47.87542191 158.50072168 -64 150 C-64.83273437 149.58105469 -65.66546875 149.16210938 -66.5234375 148.73046875 C-80.33141275 141.1731069 -91.47164968 128.63467892 -99 115 C-99.66515625 113.86304688 -99.66515625 113.86304688 -100.34375 112.703125 C-109.55284562 95.96952443 -110.43929096 75.27777772 -106.75 56.8125 C-100.31176392 34.80752881 -85.33696141 16.09247542 -65.61279297 4.80395508 C-45.76013493 -5.91047568 -21.19013561 -7.31535177 0 0 Z M-74 21 C-74 21.66 -74 22.32 -74 23 C-74.58265625 23.26296875 -75.1653125 23.5259375 -75.765625 23.796875 C-87.17376016 29.93971701 -94.22227444 45.1431782 -98 57 C-103.53286959 75.55020279 -100.25054468 94.12588655 -91.5625 111 C-87.36204457 118.41451686 -87.36204457 118.41451686 -82 125 C-81.34 125 -80.68 125 -80 125 C-80 125.66 -80 126.32 -80 127 C-79.34 127 -78.68 127 -78 127 C-78 127.66 -78 128.32 -78 129 C-77.34 129 -76.68 129 -76 129 C-76 129.66 -76 130.32 -76 131 C-75.34 131 -74.68 131 -74 131 C-74 131.66 -74 132.32 -74 133 C-59.72224832 144.96690169 -40.49003527 151.50966328 -22 150 C-14.80508479 149.04924335 -7.87001365 147.33026441 -1 145 C-0.93530518 144.24605957 -0.87061035 143.49211914 -0.80395508 142.71533203 C2.53499951 105.06109567 2.53499951 105.06109567 12 90 C12.70710678 88.35008418 13.39971596 86.69170958 14 85 C14.66 85 15.32 85 16 85 C17.6730406 83.08107796 17.6730406 83.08107796 19.375 80.6875 C21.20978415 78.17780626 22.73249408 76.20039478 25.2265625 74.33203125 C25.81179688 73.89246094 26.39703125 73.45289063 27 73 C27 72.34 27 71.68 27 71 C27.66 70.773125 28.32 70.54625 29 70.3125 C32.28866982 68.87370695 35.13739203 67.08501729 38.1328125 65.12109375 C40 64 40 64 43 63 C42.31143805 47.12864696 35.20740918 34.21860889 23.78515625 23.34765625 C9.45432866 11.26795445 -8.30231487 4.61101789 -26.9375 4.75 C-27.97068359 4.74226562 -29.00386719 4.73453125 -30.06835938 4.7265625 C-46.36361203 4.76784243 -60.99353399 11.32852527 -74 21 Z " fill="#060606" transform="translate(326,195)"/>
<path d="M0 0 C11.88 0 23.76 0 36 0 C45.53543911 20.18986784 48.63152849 35.18133174 48.21887207 57.13122559 C48.16545629 60.63234943 48.17686613 64.13332348 48.18164062 67.63476562 C48.18193437 74.42426611 48.11469428 81.21148653 48 88 C44.15827097 87.29920108 41.16160747 86.24403589 37.6875 84.4375 C36.80449219 83.98246094 35.92148437 83.52742188 35.01171875 83.05859375 C34.34785156 82.70925781 33.68398438 82.35992187 33 82 C33 81.34 33 80.68 33 80 C32.236875 79.71125 31.47375 79.4225 30.6875 79.125 C28 78 28 78 25 76 C25 75.34 25 74.68 25 74 C24.38125 73.7525 23.7625 73.505 23.125 73.25 C20.64931313 71.79371361 20.04874998 70.62187494 19 68 C18.34 68 17.68 68 17 68 C15.45838629 65.92533322 14.05958333 63.87117878 12.6875 61.6875 C12.28450684 61.05030029 11.88151367 60.41310059 11.46630859 59.7565918 C3.10610018 46.29709396 -1.19936048 32.41367602 -1.125 16.5625 C-1.12886719 15.74201172 -1.13273438 14.92152344 -1.13671875 14.07617188 C-1.13542969 13.26857422 -1.13414062 12.46097656 -1.1328125 11.62890625 C-1.13168457 10.90775635 -1.13055664 10.18660645 -1.12939453 9.44360352 C-0.96175462 6.27773956 -0.44834803 3.1384362 0 0 Z " fill="#04CB68" transform="translate(781,314)"/>
<path d="M0 0 C11.55 0 23.1 0 35 0 C35 20.13 35 40.26 35 61 C23.45 61 11.9 61 0 61 C0 40.87 0 20.74 0 0 Z " fill="#00CC66" transform="translate(839,237)"/>
<path d="M0 0 C0.33 0 0.66 0 1 0 C1 14.19 1 28.38 1 43 C-12.53 43 -26.06 43 -40 43 C-36.87370766 39.87370766 -35.19680218 38.35553264 -31.5 36.4375 C-29.11203532 35.19036091 -26.98555368 33.98892973 -24.84375 32.34765625 C-23 31 -23 31 -21 31 C-21 30.34 -21 29.68 -21 29 C-20.34 29 -19.68 29 -19 29 C-19 28.34 -19 27.68 -19 27 C-18.34 27 -17.68 27 -17 27 C-17 26.34 -17 25.68 -17 25 C-16.34 25 -15.68 25 -15 25 C-15 24.34 -15 23.68 -15 23 C-14.34 23 -13.68 23 -13 23 C-12.71125 22.4225 -12.4225 21.845 -12.125 21.25 C-11.08333333 19.16666667 -10.04166667 17.08333333 -9 15 C-8.34 15 -7.68 15 -7 15 C-6.7525 14.175 -6.505 13.35 -6.25 12.5 C-2.77777778 2.77777778 -2.77777778 2.77777778 0 0 Z " fill="#12CC6F" transform="translate(939,365)"/>
<path d="M0 0 C7.20961282 4.41922563 7.20961282 4.41922563 9 8 C9.28882166 10.93635355 9.50390082 13.14638773 9 16 C6.625 18.875 6.625 18.875 4 21 C3.34 21.66 2.68 22.32 2 23 C-0.2421875 23.265625 -0.2421875 23.265625 -2.875 23.25 C-3.73867188 23.25515625 -4.60234375 23.2603125 -5.4921875 23.265625 C-8.19820156 22.97900669 -9.75719985 22.53403647 -12 21 C-14.69626757 16.8167543 -15.81192123 11.9091163 -15 7 C-11.34723499 2.35177426 -6.04129861 -1.67099749 0 0 Z M-5 9 C-5.33 10.65 -5.66 12.3 -6 14 C-4.68 14.33 -3.36 14.66 -2 15 C-0.89163577 13.11683841 -0.89163577 13.11683841 0 11 C-0.33 10.34 -0.66 9.68 -1 9 C-2.32 9 -3.64 9 -5 9 Z " fill="#050605" transform="translate(409,317)"/>
<path d="M0 0 C0.928125 0.020625 1.85625 0.04125 2.8125 0.0625 C5.7350949 1.31504067 6.92483523 3.24100708 8.34375 6.02734375 C9.66217748 9.99047397 8.4879292 13.40314081 7.3125 17.25 C5.24008269 20.01322308 3.24209299 20.85926358 0 22 C-4.67660559 22.32031545 -7.30202646 21.57916953 -10.9375 18.5625 C-14.06621985 14.67530261 -14.41887469 12.16043723 -14.33203125 7.265625 C-14 5 -14 5 -12.0625 1.9375 C-7.87710288 -0.7104043 -4.8069128 -0.48156686 0 0 Z M-4 8 C-4 8.66 -4 9.32 -4 10 C-3.34 10 -2.68 10 -2 10 C-1.67 11.32 -1.34 12.64 -1 14 C-0.67 12.68 -0.34 11.36 0 10 C-1.32 9.34 -2.64 8.68 -4 8 Z " fill="#020303" transform="translate(302,261)"/>
<path d="M0 0 C0 0.33 0 0.66 0 1 C-1.30453125 1.10957031 -2.6090625 1.21914063 -3.953125 1.33203125 C-24.74032136 3.16853902 -41.27097721 8.13152093 -58 21 C-58.33 20.34 -58.66 19.68 -59 19 C-58.34 19 -57.68 19 -57 19 C-57 18.34 -57 17.68 -57 17 C-40.88790664 1.67273641 -20.91659833 -0.21613018 0 0 Z " fill="#BBD6C8" transform="translate(415,257)"/>
<path d="M0 0 C10.89 0 21.78 0 33 0 C33 0.99 33 1.98 33 3 C23.76 3 14.52 3 5 3 C5 2.34 5 1.68 5 1 C3.35 1 1.7 1 0 1 C0 0.67 0 0.34 0 0 Z " fill="#2D2D2D" transform="translate(773,305)"/>
<path d="M0 0 C0.69101807 0.12600586 1.38203613 0.25201172 2.09399414 0.38183594 C5.44023161 1.046196 7.55925658 1.70617105 10.4375 3.625 C8.29150757 3.48152682 6.14571331 3.33508875 4 3.1875 C2.80503906 3.10628906 1.61007812 3.02507812 0.37890625 2.94140625 C-2.38617026 2.71943281 -5.09592569 2.43910497 -7.84375 2.09375 C-13.10756297 1.49138397 -18.33300777 1.51462533 -23.625 1.5625 C-25.06649414 1.56926758 -25.06649414 1.56926758 -26.53710938 1.57617188 C-28.87897422 1.58782294 -31.22070181 1.60417975 -33.5625 1.625 C-23.64602986 -3.51620528 -10.64930477 -1.95744249 0 0 Z " fill="#DFF0E7" transform="translate(551.5625,269.375)"/>
<path d="M0 0 C4.11229227 0.65306875 7.33631462 2.8482898 10.8125 5 C12.14694287 5.81541935 13.48158441 6.63051366 14.81640625 7.4453125 C15.50234863 7.86586914 16.18829102 8.28642578 16.89501953 8.71972656 C18.99162166 9.9949042 21.10023031 11.24713933 23.21484375 12.4921875 C23.89119873 12.89179687 24.56755371 13.29140625 25.2644043 13.703125 C26.56229333 14.46912369 27.8618713 15.23226975 29.16333008 15.9921875 C32.10873842 17.74070982 34.74247602 19.39893976 37 22 C31.69101382 20.46629288 27.15883285 18.07125922 22.375 15.375 C21.58681885 14.93349609 20.7986377 14.49199219 19.98657227 14.03710938 C1.89547825 3.79095651 1.89547825 3.79095651 0 0 Z " fill="#E1F2EA" transform="translate(410,79)"/>
<path d="M0 0 C-2.74300018 2.18243836 -5.38921593 3.77025524 -8.58984375 5.19140625 C-9.89018555 5.77245117 -9.89018555 5.77245117 -11.21679688 6.36523438 C-12.56354492 6.95788086 -12.56354492 6.95788086 -13.9375 7.5625 C-15.27844727 8.16094727 -15.27844727 8.16094727 -16.64648438 8.77148438 C-20.73751391 10.59073211 -24.83560493 12.35425468 -29 14 C-21.97603619 6.55908857 -10.51289248 -0.48377912 0 0 Z " fill="#C6D9D0" transform="translate(283,202)"/>
<path d="M0 0 C0.66 0.33 1.32 0.66 2 1 C-2.95 5.95 -7.9 10.9 -13 16 C-13 11.93645091 -11.47015238 10.94829419 -8.75 8 C-7.96109375 7.13375 -7.1721875 6.2675 -6.359375 5.375 C-4.3351828 3.33740256 -2.34982916 1.63841299 0 0 Z " fill="#61DFA0" transform="translate(711,302)"/>
<path d="M0 0 C0.66 0.33 1.32 0.66 2 1 C0.38113585 2.67262717 -1.2452729 4.33795537 -2.875 6 C-3.77992188 6.928125 -4.68484375 7.85625 -5.6171875 8.8125 C-8 11 -8 11 -10 11 C-8.63055898 8.05043472 -7.12169591 5.47531189 -5 3 C-4.34 3 -3.68 3 -3 3 C-3 2.34 -3 1.68 -3 1 C-2.01 0.67 -1.02 0.34 0 0 Z " fill="#53CC8F" transform="translate(357,277)"/>
<path d="M0 0 C0.66 0.33 1.32 0.66 2 1 C-1.96 4.96 -5.92 8.92 -10 13 C-10 9.28115772 -9.1259934 8.63852271 -6.6875 5.9375 C-5.76517578 4.89916016 -5.76517578 4.89916016 -4.82421875 3.83984375 C-3 2 -3 2 0 0 Z " fill="#63DFA1" transform="translate(491,279)"/>
<path d="M0 0 C0.99 0.33 1.98 0.66 3 1 C-0.88672813 4.18005028 -4.89952133 7.10554447 -9 10 C-9.33 9.34 -9.66 8.68 -10 8 C-9.34 8 -8.68 8 -8 8 C-8 7.34 -8 6.68 -8 6 C-6.35546875 4.45703125 -6.35546875 4.45703125 -4.1875 2.8125 C-3.47980469 2.26207031 -2.77210938 1.71164062 -2.04296875 1.14453125 C-1.36878906 0.76683594 -0.69460938 0.38914062 0 0 Z " fill="#C3D8CD" transform="translate(366,268)"/>
<path d="M0 0 C1.15224028 0.92961422 2.29659176 1.8690125 3.4375 2.8125 C4.07558594 3.33457031 4.71367187 3.85664063 5.37109375 4.39453125 C7 6 7 6 8 9 C5.6875 8.875 5.6875 8.875 3 8 C0 3.13793103 0 3.13793103 0 0 Z " fill="#D4E8DE" transform="translate(325,189)"/>
<path d="M0 0 C1.32 0.33 2.64 0.66 4 1 C4 2.65 4 4.3 4 6 C2.68 5.67 1.36 5.34 0 5 C0 3.35 0 1.7 0 0 Z " fill="#50CF8F" transform="translate(296,270)"/>
<path d="M0 0 C0.66 0.33 1.32 0.66 2 1 C-2.625 6.875 -2.625 6.875 -6 8 C-5.34 6.68 -4.68 5.36 -4 4 C-3.34 4 -2.68 4 -2 4 C-2 3.34 -2 2.68 -2 2 C-1.34 2 -0.68 2 0 2 C0 1.34 0 0.68 0 0 Z " fill="#8FE5BA" transform="translate(34,233)"/>
<path d="M0 0 C0.8353125 0.37125 0.8353125 0.37125 1.6875 0.75 C-3.5859375 3.97265625 -3.5859375 3.97265625 -5.3125 4.75 C-5.9725 4.42 -6.6325 4.09 -7.3125 3.75 C-2.88173077 -0.31153846 -2.88173077 -0.31153846 0 0 Z " fill="#D8E7DF" transform="translate(375.3125,264.25)"/>
</svg>
